<?xml version="1.0" encoding="UTF-8" standalone="no"?>
<!DOCTYPE svg PUBLIC "-//W3C//DTD SVG 1.1//EN" "http://www.w3.org/Graphics/SVG/1.1/DTD/svg11.dtd">
<svg width="100%" height="100%" viewBox="0 0 876 539" version="1.1" xmlns="http://www.w3.org/2000/svg" xmlns:xlink="http://www.w3.org/1999/xlink" xml:space="preserve" xmlns:serif="http://www.serif.com/" style="fill-rule:evenodd;clip-rule:evenodd;stroke-linecap:round;stroke-linejoin:round;stroke-miterlimit:1.5;">
    <g transform="matrix(1,0,0,1,-86.856655,-314.696428)">
        <g transform="matrix(1,0,0,1,-141.798704,-219.688369)">
            <path d="M314,854C332.167,854.167 354.24,857.939 373,852C396.167,844.667 430.833,824 453,810C472.058,797.963 488.085,781.681 506,768C524.333,754 543.833,737 563,726C581.147,715.585 601.5,706.333 621,702C640.209,697.731 661.833,699.667 680,700C696.717,700.307 716.333,704.833 730,704C741.06,703.326 755.078,703.652 762,695C770,685 773.667,659.833 778,644C781.97,629.493 780.821,613.217 788,600C795.333,586.5 811.167,571.667 822,563C830.964,555.829 842.175,551.821 853,548C864.333,544 878.667,539 890,539C900.76,539 913.333,546.333 921,548C925.897,549.065 931.03,549.637 936,549C942.5,548.167 951.833,541.857 960,543C968.333,544.167 979.833,551.5 986,556C990.794,559.498 992.144,566.588 997,570C1003.167,574.333 1014.197,578.309 1023,582C1033.333,586.333 1048.667,590 1059,596C1068.818,601.701 1079.167,610.833 1085,618C1089.808,623.907 1092.95,631.457 1094,639C1095.833,652.167 1098.333,683.333 1096,697C1094.382,706.478 1084.5,712.833 1080,721C1075.606,728.974 1074.199,738.526 1069,746C1063.667,753.667 1057.2,763.345 1048,767C1035.833,771.833 1013.522,774.264 996,775C976.167,775.833 945.333,769 929,772C916.724,774.255 907.333,785 898,793C888.687,800.982 879.663,809.702 873,820C865.667,831.333 857.333,848.5 854,861C851.079,871.955 853.667,887.5 853,895C852.663,898.786 851.667,905.667 850,906C848.333,906.333 846.5,896.333 843,897C839.5,897.667 833.5,907.667 829,910C825.142,912.001 819.751,908.804 816,911C809.167,915 798.141,927.438 788,934C768.167,946.833 719.167,983.167 697,988C681.082,991.471 663.833,965 655,963C649.464,961.746 648.445,972.47 644,976C638.333,980.5 627.833,985.833 621,990C614.996,993.661 605.333,996.667 603,1001C600.667,1005.333 603.869,1011.88 607,1016C610.167,1020.167 617.167,1022.5 622,1026C626.807,1029.481 632.776,1032.017 636,1037C639.667,1042.667 647.667,1055.167 644,1060C640.333,1064.833 624.185,1065.48 614,1066C597.667,1066.833 561.167,1067.167 546,1065C537.439,1063.777 526.317,1060.986 523,1053C518.5,1042.167 517.667,1014.667 519,1000C520.117,987.717 528.167,974 531,965C532.967,958.753 537.667,950.167 536,946C534.333,941.833 526.374,940.35 521,940C505.667,939 469.653,940.828 444,940C418.167,939.167 391.394,940.823 366,935C339.833,929 308.667,916.333 287,904C267.675,893 244.167,870.667 236,861C232.745,857.147 233.333,847.667 238,846C242.667,844.333 255.223,850.076 264,851C276.667,852.333 297.304,853.847 314,854Z" style="fill:rgb(65,106,62);stroke:rgb(30,61,41);stroke-width:4.17px;"/>
        </g>
        <g transform="matrix(1,0,0,1,-141.798704,-219.688369)">
            <path d="M869,613C866.807,617.873 868.704,623.816 870,629C871.333,634.333 872.54,641.259 877,645C882.167,649.333 893.667,655.167 901,655C908.333,654.833 916.5,649.167 921,644C925.5,638.833 927.333,630.833 928,624C928.667,617.167 928,609 925,603C922,597 916.167,590.333 910,588C903.833,585.667 894.268,585.178 888,589C881.167,593.167 872,606.333 869,613Z" style="fill:rgb(30,61,41);stroke:rgb(30,61,41);stroke-width:4.17px;"/>
        </g>
        <g transform="matrix(1,0,0,1,-141.798704,-219.688369)">
            <path d="M521,870C524.5,873 528.359,892.61 534,903C540.333,914.667 551,930.5 559,940C565.544,947.771 572.696,955.919 582,960C591.5,964.167 604.694,966.841 616,965C630.333,962.667 664,944.333 668,946C672,947.667 649.833,966.833 640,975C630.54,982.857 617.667,991.333 609,995C602.524,997.74 595.003,996.363 588,997C580.667,997.667 571.333,995.333 565,999C558.667,1002.667 552.162,1010.952 550,1019C547,1030.167 551.667,1060.667 547,1066C542.333,1071.333 525.48,1060.074 522,1051C517.333,1038.833 516.5,1008.333 519,993C521.064,980.344 535.167,970.333 537,959C538.833,947.667 533.57,936.007 530,925C526,912.667 514.5,894.167 513,885C512.085,879.408 517.5,867 521,870Z" style="fill:rgb(65,108,63);"/>
        </g>
        <g transform="matrix(1,0,0,1,-141.798704,-219.688369)">
            <path d="M664,961C667.067,972.621 688.053,960.313 700,959C715.167,957.333 738.167,957.5 755,951C771.833,944.5 789.5,928 801,920C808.826,914.556 822.167,908.5 824,903C825.833,897.5 817.833,889.833 812,887C806.167,884.167 796.006,889.13 789,886C781.167,882.5 770.167,869 765,866C762.901,864.781 760.249,867.088 758,868C751.833,870.5 738.581,878.389 728,881C715.167,884.167 690.866,874.667 681,887C670.333,900.333 660.833,949 664,961Z" style="fill:rgb(65,108,63);"/>
        </g>
        <g transform="matrix(1,0,0,1,-141.798704,-219.688369)">
            <path d="M254,870C256.333,868.333 277.476,882.61 290,887C306.167,892.667 330.134,900.814 351,904C372.833,907.333 398.833,908.667 421,907C442.382,905.392 469,900.167 484,894C495.137,889.421 505.167,869 511,870C516.833,871 515.905,890.124 519,900C522.5,911.167 533.333,930 532,937C530.667,944 518.176,941.471 511,942C495.167,943.167 461.656,944.993 437,944C412.167,943 386.134,943.045 362,936C335.167,928.167 294,908 276,897C266.094,890.946 251.667,871.667 254,870Z" style="fill:rgb(65,108,63);"/>
        </g>
        <g transform="matrix(1,0,0,1,-141.798704,-219.688369)">
            <path d="M853,572C853.5,574.5 863.624,567.882 869,566C875.667,563.667 884.569,557.844 893,558C902,558.167 915,563.833 923,567C929.382,569.526 937.167,577.333 941,577C944.833,576.667 948.542,568.51 946,565C942.5,560.167 929.509,552.099 920,548C910.333,543.833 897,539.5 888,540C879.814,540.455 871.833,545.667 866,551C860.167,556.333 852.5,569.5 853,572Z" style="fill:rgb(142,179,118);"/>
        </g>
        <g transform="matrix(1,0,0,1,-141.798704,-219.688369)">
            <path d="M939.912,559.426C944.912,561.093 953.793,558.434 960,561C966.681,563.762 973.833,571.167 980,576C985.778,580.528 990.494,586.599 997,590C1004.333,593.833 1015.214,595.421 1024,599C1033,602.667 1043.51,605.391 1051,612C1059.5,619.5 1070.167,633.333 1075,644C1079.456,653.834 1078.833,665.5 1080,676C1081.143,686.291 1079,704.167 1082,707C1085,709.833 1096.653,699.958 1098,693C1100,682.667 1097,658 1094,645C1091.519,634.247 1087.4,623.187 1080,615C1072.167,606.333 1058.825,598.912 1047,593C1033.333,586.167 1009.5,581 998,574C989.321,568.717 986.956,555.798 978,551C968.667,546 950,544 942,544C937.369,544 930.348,548.429 930,551C929.652,553.571 935.798,558.055 939.912,559.426Z" style="fill:rgb(142,179,118);"/>
        </g>
        <g transform="matrix(1,0,0,1,-141.798704,-219.688369)">
            <path d="M287.308,855.321C290.142,856.821 320.084,866.94 337,866C358.949,864.78 394.833,857.667 419,848C442.096,838.762 461.714,822.396 482,808C502.667,793.333 525.667,772.5 543,760C556.727,750.1 570.575,739.966 586,733C601.5,726 619.167,720.833 636,718C652.777,715.176 671.833,715.667 687,716C700.397,716.294 715.333,721.5 727,720C737.81,718.61 748.405,713.701 757,707C766.833,699.333 780.023,687.369 786,674C792.333,659.833 789.333,636.667 795,622C800.265,608.372 811.5,594.667 820,586C827.125,578.735 839.833,575 846,570C850.61,566.262 856,559.833 857,556C857.866,552.679 855.329,546.168 852,547C845.333,548.667 827.1,557.385 817,566C805.667,575.667 791.176,589.556 784,605C776.333,621.5 774.5,650.667 771,665C768.849,673.809 770.219,685.513 763,691C754.667,697.333 735.53,702.067 721,703C702.833,704.167 674.833,696.5 654,698C634.163,699.428 614.167,705.333 596,712C578.086,718.574 560.825,727.339 545,738C529.167,748.667 516.565,764.456 501,776C481,790.833 450,814.333 425,827C401.775,838.767 368.5,847 351,852C340.936,854.875 330.453,856.455 320,857C309.385,857.553 284.475,853.821 287.308,855.321Z" style="fill:rgb(142,179,118);"/>
        </g>
        <g transform="matrix(1,0,0,1,-141.798704,-219.688369)">
            <path d="M243,847C256.037,850.137 282.11,856.412 302,856C326.167,855.5 360.589,853.297 388,844C416.5,834.333 447,815.5 473,798C498.528,780.818 525.333,752.667 544,739C556.644,729.743 570.356,721.579 585,716C602.5,709.333 626.986,700.614 649,699C674,697.167 715.667,706.167 735,705C745.879,704.344 759.236,701.249 765,692C772.167,680.5 772.833,652.833 778,636C782.74,620.556 786.488,604.059 796,591C805.833,577.5 820.639,562.942 837,555C854.167,546.667 880.833,538.833 899,541C916.941,543.14 936.314,559.713 946,568" style="fill:none;stroke:rgb(30,61,41);stroke-width:12.5px;"/>
        </g>
        <g transform="matrix(1,0,0,1,-141.798704,-219.688369)">
            <path d="M925.077,551.856C930.257,549.391 940.619,544.461 949,544C957.654,543.524 968.969,543.961 977,549C985.5,554.333 989.941,569.787 1000,576C1011.333,583 1031.167,584.167 1045,591C1058.761,597.797 1074.5,607.333 1083,617C1090.603,625.646 1094.648,637.566 1096,649C1097.833,664.5 1099.833,697.333 1094,710C1088.946,720.975 1072.886,722.827 1061,725C1045.5,727.833 1019.167,729.833 1001,727C983.691,724.3 963.833,714.167 952,708C943.597,703.621 934.532,694.54 930,690" style="fill:none;stroke:rgb(30,61,41);stroke-width:12.5px;"/>
        </g>
        <g transform="matrix(1,0,0,1,-141.798704,-219.688369)">
            <path d="M1080.33,720.708C1078.219,726.939 1073.998,739.402 1068,747C1061.778,754.882 1053.325,764.558 1043,768C1029.5,772.5 1004,773.167 987,774C971.681,774.751 956.167,773.5 941,773C925.993,772.505 909.833,773.833 896,771C882.659,768.268 868.667,764 858,756C847.333,748 836.667,731.5 832,723C829.095,717.708 829.698,709.236 830,705" style="fill:none;stroke:rgb(30,61,41);stroke-width:12.5px;"/>
        </g>
        <g transform="matrix(1,0,0,1,-141.798704,-219.688369)">
            <path d="M821,907C817.139,910.308 809.416,916.925 803,921C790.667,928.833 767.828,948.029 747,954C722,961.167 669.5,961.5 653,964C650.67,964.353 649.667,967.333 648,969C644.5,972.5 638.186,980.684 632,985C624.833,990 609,993.5 605,999C601.229,1004.185 604.833,1013 608,1018C611.167,1023 618.833,1025.167 624,1029C629.142,1032.815 635.372,1035.724 639,1041C642.667,1046.333 646.833,1057 646,1061C645.167,1065 638.214,1064.845 634,1065C615.833,1065.667 555.667,1069.167 537,1065C527.515,1062.883 523.928,1049.525 522,1040C519.167,1026 517.833,994.833 520,981C521.46,971.68 533.333,965.5 535,957C536.667,948.5 532.552,938.79 530,930C527,919.667 518.74,907.323 517,895C515,880.833 517,856.944 518,845" style="fill:none;stroke:rgb(30,61,41);stroke-width:12.5px;"/>
        </g>
        <g transform="matrix(1,0,0,1,-141.798704,-219.688369)">
            <path d="M852,863C855.631,857.043 862.893,845.13 868,836C873.5,826.167 876.832,812.898 885,804C894.333,793.833 914.111,781.278 924,775" style="fill:none;stroke:rgb(30,61,41);stroke-width:12.5px;"/>
        </g>
        <g transform="matrix(1,0,0,1,-141.798704,-219.688369)">
            <path d="M533.077,939.942C520.395,940.292 495.029,940.992 476,941C451.654,941.01 413.833,943.833 387,940C362.157,936.451 337.673,928.757 315,918C292.167,907.167 263.333,885.5 250,875C243.453,869.844 236.167,859.667 235,855C234.085,851.341 240.028,848.447 243,847" style="fill:none;stroke:rgb(30,61,41);stroke-width:12.5px;"/>
        </g>
        <g transform="matrix(1,0,0,1,-141.798704,-219.688369)">
            <path d="M653,964C657.042,958.528 665.125,947.584 668,938C672,924.667 677.333,900.833 677,884C676.681,867.913 669.56,847.304 666,837" style="fill:none;stroke:rgb(30,61,41);stroke-width:12.5px;"/>
        </g>
        <g transform="matrix(1,0,0,1,-141.798704,-219.688369)">
            <g transform="matrix(1.263627,0,0,1,-232.137798,0)">
                <path d="M880.553,541.534C876.51,544.219 868.425,549.589 864,555C859.575,560.411 855.858,569.47 854,574" style="fill:none;stroke:rgb(30,61,41);stroke-width:10.97px;"/>
            </g>
        </g>
        <g transform="matrix(1,0,0,1,-141.798704,-219.688369)">
            <path d="M578.043,1066.95C578.524,1063.552 579.486,1056.757 578,1052C576.493,1047.175 571.498,1041.058 569,1038" style="fill:rgb(30,61,41);stroke:rgb(30,61,41);stroke-width:12.5px;"/>
        </g>
        <g transform="matrix(1,0,0,1,-141.798704,-219.688369)">
            <path d="M615.118,1065.812C615.252,1061.308 615.52,1052.302 613,1047C610.48,1041.698 603.493,1036.566 600,1034" style="fill:rgb(30,61,41);stroke:rgb(30,61,41);stroke-width:12.5px;"/>
        </g>
        <g transform="matrix(1,0,0,1,-141.798704,-219.688369)">
            <path d="M790.747,930.529C793.247,931.196 789.594,949.815 784,957C776.542,966.578 751.667,979 746,988C741.854,994.585 745.833,1006.167 750,1011C754.167,1015.833 765,1013.333 771,1017C777,1020.667 782.337,1026.673 786,1033C789.667,1039.333 797.833,1051 793,1055C788.167,1059 769.019,1057 757,1057C740.667,1057 708.167,1057.5 695,1055C687.992,1053.669 680.81,1048.557 678,1042C673.5,1031.5 669.333,1005.167 668,992C667.024,982.36 663.667,966.833 670,963C676.333,959.167 693.896,970.223 706,969C722.5,967.333 754.875,959.412 769,953C778.492,948.691 788.247,929.862 790.747,930.529Z" style="fill:rgb(30,61,41);stroke:rgb(30,61,41);stroke-width:12.5px;"/>
        </g>
        <g transform="matrix(1,0,0,1,-141.798704,-219.688369)">
            <path d="M763,841C762.944,846.333 762.833,857 766,864C769.167,871 774.381,879.758 782,883C789.833,886.333 805.667,879.333 813,884C820.333,888.667 821,909.167 826,911C831,912.833 839.333,895.667 843,895C846.667,894.333 845.833,909.667 848,907C850.167,904.333 857.833,887.667 856,879C854.167,870.333 845,859.667 837,855C829,850.333 813.667,851.333 808,851C806.208,850.895 804.069,852.298 803,853" style="fill:none;stroke:rgb(30,61,41);stroke-width:12.5px;"/>
        </g>
        <g transform="matrix(1,0,0,1,-141.798704,-219.688369)">
            <path d="M813.759,851.109C813.271,846.245 812.293,836.518 811,832C810.135,828.977 807.378,825.659 806,824" style="fill:none;stroke:rgb(30,61,41);stroke-width:12.5px;"/>
        </g>
        <g transform="matrix(1,0,0,1,-141.798704,-219.688369)">
            <path d="M857,872C861.333,874.667 873.167,877.167 880,877C886.323,876.846 893.333,867.5 898,871C902.667,874.5 903.833,897.5 908,898C912.167,898.5 919.167,874.833 923,874C926.833,873.167 928.667,894.833 931,893C933.333,891.167 939,871.333 937,863C935,854.667 926.167,846.5 919,843C911.833,839.5 901.667,844.667 894,842C886.333,839.333 879.667,823.833 873,827C866.333,830.167 856.667,853.5 854,861C852.727,864.581 853.763,870.008 857,872Z" style="fill:rgb(65,106,62);stroke:rgb(30,61,41);stroke-width:12.5px;"/>
        </g>
        <g transform="matrix(1,0,0,1,-141.798704,-219.688369)">
            <path d="M1028,641C1029.167,642.833 1032.737,644.24 1035,646C1038,648.333 1044,655.5 1046,655C1048,654.5 1048.124,646.853 1047,643C1045.833,639 1042.167,632.333 1039,631C1035.833,629.667 1029.833,633.333 1028,635C1026.52,636.345 1026.926,639.313 1028,641Z" style="fill:rgb(30,61,41);stroke:rgb(30,61,41);stroke-width:4.17px;"/>
        </g>
        <g transform="matrix(1,0,0,1,-141.798704,-219.688369)">
            <path d="M898,601C896.509,602.491 895.702,604.913 896,607C896.333,609.333 898,613.167 900,615C902,616.833 905.5,618.5 908,618C910.5,617.5 913.833,614.333 915,612C916.167,609.667 916.55,606.17 915,604C913.333,601.667 907.833,598.5 905,598C902.5,597.559 899.5,599.5 898,601Z" style="fill:rgb(249,252,225);"/>
        </g>
    </g>
</svg>
